# xmcd
#
# Track frame offsets:
#	150
#	11028
#	28189
#	38262
#	50512
#	68449
#	82122
#
# Disc length: 1238 seconds
#
# Revision: 0
# Processed by: cddbd v1.4PL0 Copyright (c) Steve Scherf et al.
# Submitted via: dBpowerAMP V4.0
#
DISCID=4d04d407
DTITLE=Laura Craig DeLong - Blue Is Hardly The Word
DYEAR=1998
DGENRE=Blues
TTITLE0=Black and White
TTITLE1=Blue Is Hardly The Word
TTITLE2=Something To Be Said (For Having The Blues)
TTITLE3=Spirit Guide
TTITLE4=Stolen
TTITLE5=Silence Of The Days
TTITLE6=Desperation Wine
EXTD=
EXTT0=
EXTT1=
EXTT2=
EXTT3=
EXTT4=
EXTT5=
EXTT6=
PLAYORDER=
